<svg width="22px" height="22px" viewBox="0 0 22 22" version="1.1" xmlns="http://www.w3.org/2000/svg" xmlns:xlink="http://www.w3.org/1999/xlink">
    <g id="Page-1" stroke="none" stroke-width="1" fill="none" fill-rule="evenodd">
        <g id="商品详情页" transform="translate(-20.000000, -631.000000)" fill="#757575">
            <g id="bottom" transform="translate(0.000000, 617.000000)">
                <g id="购物车-copy">
                    <g id="ic_global_help-#757575" transform="translate(20.000000, 14.000000)">
                        <g>
                            <g id="Group-5" transform="translate(7.000000, 7.500000)">
                                <path d="M7.1499,4.0752 C6.8739,4.0752 6.6499,4.2992 6.6499,4.5752 C6.6499,5.1682 6.1679,5.6497 5.5749,5.6497 C5.0879,5.6497 4.5604,5.0357 4.4149,4.8212 C4.3224,4.6832 4.1784,4.5967 3.9994,4.6007 C3.8339,4.6007 3.6789,4.6832 3.5859,4.8202 C3.4394,5.0357 2.9119,5.6497 2.4249,5.6497 C1.8324,5.6497 1.3499,5.1682 1.3499,4.5752 C1.3499,4.2992 1.1264,4.0752 0.8499,4.0752 C0.5739,4.0752 0.3499,4.2992 0.3499,4.5752 C0.3499,5.7192 1.2809,6.6497 2.4249,6.6497 C3.0909,6.6497 3.6454,6.2352 3.9999,5.8772 C4.3544,6.2352 4.9094,6.6497 5.5749,6.6497 C6.7189,6.6497 7.6499,5.7192 7.6499,4.5752 C7.6499,4.2992 7.4259,4.0752 7.1499,4.0752" id="Fill-5"></path>
                                <path d="M1.3501,2.44995 C1.9301,2.44995 2.4001,1.97995 2.4001,1.39995 C2.4001,0.81995 1.9301,0.34995 1.3501,0.34995 C0.7701,0.34995 0.3001,0.81995 0.3001,1.39995 C0.3001,1.97995 0.7701,2.44995 1.3501,2.44995" id="Fill-7"></path>
                                <path d="M6.6499,0.3501 C6.0699,0.3501 5.5999,0.8201 5.5999,1.4001 C5.5999,1.9801 6.0699,2.4501 6.6499,2.4501 C7.2299,2.4501 7.6999,1.9801 7.6999,1.4001 C7.6999,0.8201 7.2299,0.3501 6.6499,0.3501" id="Fill-9"></path>
                            </g>
                            <path d="M20,13.25 C20,13.6635 19.6635,14 19.25,14 C18.8365,14 18.5,13.6635 18.5,13.25 L18.5,10.6875 C18.5,10.496 18.574,10.323 18.693,10.19 C18.8305,10.0365 19.028,9.9375 19.25,9.9375 C19.579,9.9375 19.8565,10.152 19.957,10.448 C19.983,10.5235 20,10.6035 20,10.6875 L20,13.25 Z M11,18 C11.5515,18 12,18.4485 12,19 C12,19.5515 11.5515,20 11,20 C10.4485,20 10,19.5515 10,19 C10,18.4485 10.4485,18 11,18 Z M20.1355,8.6265 C20.0745,8.6005 20.031,8.5475 20.0205,8.4815 C19.3145,4.134 15.544,0.5 11,0.5 C6.4705,0.5 2.7095,4.105 1.9865,8.4395 C1.97,8.5365 1.9065,8.615 1.818,8.6575 C1.0285,9.038 0.5,9.881 0.5,10.804 L0.5,17.082 C0.5,18.555 1.6945,19.75 3.168,19.75 L8.489,19.75 C8.572,19.75 8.6435,19.803 8.673,19.8815 C9.083,20.966 10.2125,21.6955 11.488,21.4535 C12.4515,21.271 13.2395,20.5045 13.4425,19.545 C13.784,17.9265 12.5585,16.5 11,16.5 C9.9315,16.5 9.0295,17.175 8.673,18.1185 C8.6435,18.197 8.572,18.25 8.4885,18.25 L3.168,18.25 C2.523,18.25 2,17.727 2,17.082 L2,10.6875 C2,10.6035 2.017,10.5235 2.043,10.448 C2.1435,10.152 2.421,9.9375 2.75,9.9375 C2.972,9.9375 3.1695,10.0365 3.307,10.19 C3.426,10.323 3.5,10.496 3.5,10.6875 C3.5,10.6875 3.4975,11.808 3.494,12.602 C3.494,12.6235 3.4985,12.6435 3.5,12.6645 C3.5315,13.0655 3.8755,13.378 4.2915,13.3515 C4.694,13.3255 4.9895,12.9555 4.9915,12.5525 L5,10.6875 C5,9.761 4.4395,8.9665 3.64,8.6215 C3.5505,8.583 3.4955,8.4905 3.515,8.3955 C4.2355,4.912 7.3145,2 11,2 C14.688,2 17.769,4.9255 18.4865,8.4045 C18.506,8.4995 18.451,8.592 18.3615,8.6305 C17.5625,8.975 17,9.762 17,10.6875 L17,13.1535 C17,14.3285 17.859,15.378 19.029,15.4895 C20.371,15.617 21.5,14.5655 21.5,13.25 L21.5,10.6875 C21.5,9.7605 20.9365,8.9705 20.1355,8.6265 Z" id="Fill-11"></path>
                        </g>
                    </g>
                </g>
            </g>
        </g>
    </g>
</svg>